<svg width="256" height="256" viewBox="0 0 256 256" fill="none" xmlns="http://www.w3.org/2000/svg">
<path d="M174.441 67.48C157.281 54.72 141.001 52.96 130.881 52.96C117.241 52.96 104.921 55.82 94.5815 66.38C85.7815 75.4 81.8215 86.4 81.8215 99.38C81.8215 106.42 82.9215 116.76 90.6215 124.9C96.3415 131.06 104.261 134.14 111.081 136.56L123.181 140.74C127.361 142.28 136.381 145.58 140.341 148.88C143.421 151.52 145.401 154.6 145.401 159.44C145.401 164.94 142.981 168.9 140.121 171.32C135.281 175.5 129.121 176.38 124.721 176.38C117.901 176.38 111.961 174.62 106.241 171.1C102.281 168.68 96.3415 163.62 92.6015 159.88L75.0015 184.08C80.5015 189.58 89.0815 196.4 96.5615 200.14C105.801 204.76 115.041 206.3 125.601 206.3C135.281 206.3 154.201 204.98 167.181 191.34C174.881 183.42 180.161 170.22 180.161 155.04C180.161 146.46 177.961 135.9 169.381 127.76C163.661 122.26 155.741 118.96 149.361 116.54L138.361 112.36C128.461 108.62 123.401 107.3 119.881 104C117.681 102.02 116.581 99.38 116.581 95.86C116.581 92.12 118.121 88.82 120.321 86.62C124.281 82.22 130.001 81.56 134.621 81.56C138.801 81.56 148.261 82.22 159.261 92.12L174.441 67.48Z" fill="url(#paint0_linear_1420_78)"/>
<defs>
<linearGradient id="paint0_linear_1420_78" x1="218.5" y1="46.5" x2="33" y2="213" gradientUnits="userSpaceOnUse">
<stop stop-color="#AC54F0"/>
<stop offset="1" stop-color="#14FED4"/>
</linearGradient>
</defs>
</svg>
